<svg xmlns="http://www.w3.org/2000/svg" xmlns:xlink="http://www.w3.org/1999/xlink" width="319.051" height="159.526" viewBox="0 0 319.051 159.526">
  <defs>
    <clipPath id="clip-path">
      <rect width="217.11" height="103.861" fill="none"/>
    </clipPath>
  </defs>
  <g id="block_b" transform="translate(-28 -50)">
    <rect id="矩形_2" data-name="矩形 2" width="319.051" height="159.525" transform="translate(28 50)" fill="#fff"/>
    <g id="重复网格_1" data-name="重复网格 1" transform="translate(79.468 77.715)" clip-path="url(#clip-path)">
      <g id="组_1" data-name="组 1">
        <ellipse id="椭圆_1" data-name="椭圆 1" cx="16.43" cy="16.43" rx="16.43" ry="16.43" transform="translate(0 0)" fill="#f3f4f6"/>
        <rect id="矩形_1" data-name="矩形 1" width="23.161" height="6.533" rx="3.266" transform="translate(37.949 6.789)" fill="#3b82f6"/>
        <rect id="矩形_7" data-name="矩形 7" width="15.161" height="6.533" rx="3.266" transform="translate(37.949 19.789)" fill="#d1d5db"/>
      </g>
      <g id="组_1-2" data-name="组 1" transform="translate(76)">
        <ellipse id="椭圆_1-2" data-name="椭圆 1" cx="16.43" cy="16.43" rx="16.43" ry="16.43" transform="translate(0 0)" fill="#f3f4f6"/>
        <rect id="矩形_1-2" data-name="矩形 1" width="23.161" height="6.533" rx="3.266" transform="translate(37.949 6.789)" fill="#3b82f6"/>
        <rect id="矩形_7-2" data-name="矩形 7" width="15.161" height="6.533" rx="3.266" transform="translate(37.949 19.789)" fill="#d1d5db"/>
      </g>
      <g id="组_1-3" data-name="组 1" transform="translate(152)">
        <ellipse id="椭圆_1-3" data-name="椭圆 1" cx="16.43" cy="16.43" rx="16.43" ry="16.43" transform="translate(0 0)" fill="#f3f4f6"/>
        <rect id="矩形_1-3" data-name="矩形 1" width="23.161" height="6.533" rx="3.266" transform="translate(37.949 6.789)" fill="#3b82f6"/>
        <rect id="矩形_7-3" data-name="矩形 7" width="15.161" height="6.533" rx="3.266" transform="translate(37.949 19.789)" fill="#d1d5db"/>
      </g>
      <g id="组_1-4" data-name="组 1" transform="translate(0 67)">
        <ellipse id="椭圆_1-4" data-name="椭圆 1" cx="16.43" cy="16.43" rx="16.43" ry="16.43" transform="translate(0 0)" fill="#f3f4f6"/>
        <rect id="矩形_1-4" data-name="矩形 1" width="23.161" height="6.533" rx="3.266" transform="translate(37.949 6.789)" fill="#3b82f6"/>
        <rect id="矩形_7-4" data-name="矩形 7" width="15.161" height="6.533" rx="3.266" transform="translate(37.949 19.789)" fill="#d1d5db"/>
      </g>
      <g id="组_1-5" data-name="组 1" transform="translate(76 67)">
        <ellipse id="椭圆_1-5" data-name="椭圆 1" cx="16.43" cy="16.43" rx="16.43" ry="16.43" transform="translate(0 0)" fill="#f3f4f6"/>
        <rect id="矩形_1-5" data-name="矩形 1" width="23.161" height="6.533" rx="3.266" transform="translate(37.949 6.789)" fill="#3b82f6"/>
        <rect id="矩形_7-5" data-name="矩形 7" width="15.161" height="6.533" rx="3.266" transform="translate(37.949 19.789)" fill="#d1d5db"/>
      </g>
      <g id="组_1-6" data-name="组 1" transform="translate(152 67)">
        <ellipse id="椭圆_1-6" data-name="椭圆 1" cx="16.43" cy="16.43" rx="16.43" ry="16.43" transform="translate(0 0)" fill="#f3f4f6"/>
        <rect id="矩形_1-6" data-name="矩形 1" width="23.161" height="6.533" rx="3.266" transform="translate(37.949 6.789)" fill="#3b82f6"/>
        <rect id="矩形_7-6" data-name="矩形 7" width="15.161" height="6.533" rx="3.266" transform="translate(37.949 19.789)" fill="#d1d5db"/>
      </g>
    </g>
  </g>
</svg>
