<svg xmlns="http://www.w3.org/2000/svg" width="319.051" height="159.526" viewBox="0 0 319.051 159.526">
  <g id="card" transform="translate(-28 -248)">
    <rect id="矩形_3" data-name="矩形 3" width="319.051" height="159.525" transform="translate(28 248)" fill="#fff"/>
    <g id="组_3" data-name="组 3" transform="translate(79 266)">
      <rect id="矩形_4" data-name="矩形 4" width="100.54" height="53.131" fill="#f3f4f6"/>
      <rect id="矩形_5" data-name="矩形 5" width="32.679" height="8.174" transform="translate(8.174 8.991)" fill="#d1d5db"/>
      <rect id="矩形_6" data-name="矩形 6" width="65.392" height="8.174" transform="translate(8.174 29.426)" fill="#3b82f6"/>
    </g>
    <g id="组_4" data-name="组 4" transform="translate(195.888 266)">
      <rect id="矩形_4-2" data-name="矩形 4" width="100.54" height="53.131" fill="#f3f4f6"/>
      <rect id="矩形_5-2" data-name="矩形 5" width="32.679" height="8.174" transform="translate(8.174 8.991)" fill="#d1d5db"/>
      <rect id="矩形_6-2" data-name="矩形 6" width="65.392" height="8.174" transform="translate(8.174 29.426)" fill="#d1d5db"/>
    </g>
    <g id="组_5" data-name="组 5" transform="translate(79 335.479)">
      <rect id="矩形_4-3" data-name="矩形 4" width="100.54" height="53.131" transform="translate(0 0)" fill="#f3f4f6"/>
      <rect id="矩形_5-3" data-name="矩形 5" width="32.679" height="8.174" transform="translate(8.174 8.991)" fill="#d1d5db"/>
      <rect id="矩形_6-3" data-name="矩形 6" width="65.392" height="8.174" transform="translate(8.174 29.426)" fill="#d1d5db"/>
    </g>
    <g id="组_6" data-name="组 6" transform="translate(195.888 335.479)">
      <rect id="矩形_4-4" data-name="矩形 4" width="100.54" height="53.131" transform="translate(0 0)" fill="#f3f4f6"/>
      <rect id="矩形_5-4" data-name="矩形 5" width="32.679" height="8.174" transform="translate(8.174 8.991)" fill="#d1d5db"/>
      <rect id="矩形_6-4" data-name="矩形 6" width="65.392" height="8.174" transform="translate(8.174 29.426)" fill="#d1d5db"/>
    </g>
  </g>
</svg>
